<svg width="100" height="93" viewBox="0 0 100 93" fill="none" xmlns="http://www.w3.org/2000/svg">
<path d="M70.5684 0.0664974C67.7425 0.297177 65.8543 0.681645 63.5032 1.47621C59.402 2.86029 55.8257 5.14147 52.6869 8.37102C51.7868 9.28089 50.6612 10.5881 50.1611 11.2673C48.9856 12.8821 47.6352 15.2145 46.985 16.7524C46.6974 17.4316 46.4224 18.0211 46.3849 18.0852C46.3348 18.1365 45.9846 17.7008 45.5969 17.124C43.1211 13.3947 39.92 10.5112 36.0312 8.51198C30.1667 5.48748 23.2766 4.98767 17.0119 7.12788C6.55824 10.7162 -0.406711 20.9815 0.0184379 32.2078C0.231012 37.7058 1.91911 42.5374 5.17025 46.8689C6.75831 48.9965 9.67183 51.7132 11.56 52.8539C11.8601 53.0334 12.1102 53.2254 12.1102 53.264C12.1102 53.3152 11.9226 53.5074 11.6851 53.6997C11.0723 54.1994 10.0594 55.8143 9.72187 56.8394L9.42174 57.711V72.1923V86.6741L9.70934 87.6097C10.2721 89.455 11.7976 91.2367 13.5482 92.1332C15.3113 93.0174 12.6729 92.9412 43.4963 92.9925C62.4779 93.0174 71.5936 92.9793 72.1691 92.8898C73.9068 92.6205 75.2828 91.9154 76.4958 90.698C77.9585 89.2372 78.6335 87.6227 78.7336 85.3672C78.7589 84.5725 78.834 83.9187 78.8962 83.9187C78.9836 83.9187 93.3764 90.6857 95.7648 91.8517C97.2655 92.5824 98.5785 92.2874 99.3281 91.0312L99.7033 90.4162L99.7413 74.0768C99.7534 62.7986 99.7284 57.5957 99.641 57.2495C99.3411 56.1219 98.0653 55.2247 96.9776 55.3786C96.6777 55.4298 92.851 57.1598 87.7619 59.5692C82.9852 61.8375 79.0087 63.7214 78.9212 63.7598C78.8211 63.7984 78.771 62.9909 78.7336 60.6971C78.6836 58.1595 78.6335 57.4802 78.4709 57.0061C78.3464 56.6985 78.2713 56.3781 78.3084 56.2884C78.3336 56.2114 78.5834 56.0961 78.8461 56.045C80.6596 55.699 84.4356 54.1098 86.5863 52.7769C93.0013 48.8042 97.7402 42.0759 99.3161 34.6814C100.154 30.7726 100.229 26.7101 99.5037 23.032C97.7653 14.0483 92.0512 6.57681 83.9479 2.65525C80.009 0.74572 74.6699 -0.279522 70.5684 0.0664974ZM73.9319 6.19235C75.1576 6.52555 76.0081 7.02538 76.9581 7.98653C77.9585 8.99898 78.534 10.0114 78.834 11.3442C79.6094 14.7275 77.3206 19.6615 74.2697 21.225C73.4192 21.6607 73.2446 21.6992 72.3316 21.6992C71.4934 21.6864 71.1933 21.6351 70.5684 21.3403C68.9302 20.5586 67.5922 19.0848 66.642 17.0087C65.404 14.3174 65.3165 11.9465 66.3419 9.74221C66.792 8.79389 68.3303 7.20477 69.2553 6.7434C70.6936 6.01293 72.4814 5.80786 73.9319 6.19235ZM26.9155 11.5108C29.3414 12.3566 31.0044 14.7531 30.9919 17.3675C30.9794 20.2254 29.0286 23.66 26.778 24.8006C25.9276 25.2235 25.7275 25.2747 24.9148 25.2747C24.1519 25.2619 23.8644 25.1977 23.2142 24.8645C20.5132 23.5063 18.4249 18.9951 19.1127 15.9834C19.6379 13.6766 21.5761 11.7415 23.8143 11.2673C24.6646 11.0879 26.0401 11.1904 26.9155 11.5108ZM58.5266 21.6864C62.7656 22.5194 66.2793 25.8643 65.9542 28.7861C65.6542 31.5415 62.5154 34.2327 58.6391 35.0402C55.5632 35.6681 52.6371 34.361 51.1864 31.6954C50.6239 30.6829 50.3737 29.632 50.3737 28.3632C50.3862 26.4537 50.9114 25.0824 52.1993 23.6855C53.8626 21.8786 56.0258 21.1994 58.5266 21.6864ZM88.8995 21.8145C90.0378 22.0709 91.1757 22.686 92.0383 23.5191C93.4889 24.9543 94.1268 26.4409 94.1389 28.4402C94.1389 30.3497 93.564 31.9005 92.4014 33.1434C90.0629 35.6426 86.8613 36.0141 83.1978 34.1943C81.647 33.4382 80.3719 32.4259 79.6338 31.4006C78.834 30.2599 78.5964 29.5808 78.5964 28.4018C78.5834 27.556 78.6465 27.3123 78.9836 26.6076C79.6966 25.1338 81.0348 23.865 82.8848 22.9167C85.0607 21.8017 87.099 21.4301 88.8995 21.8145ZM13.0856 25.3772C15.5989 26.018 18.0248 27.7738 18.8626 29.5936C20.0255 32.1311 18.5875 34.7326 15.0487 36.437C12.3478 37.7444 9.85942 37.7186 7.85868 36.3473C5.33282 34.6172 4.52004 31.2467 5.94552 28.376C6.65828 26.9536 8.45893 25.5695 10.047 25.2363C10.7722 25.0824 12.2228 25.1466 13.0856 25.3772ZM39.9949 25.4286C40.4578 25.5311 41.1706 25.8257 41.5831 26.0694C45.1093 28.2351 45.647 33.0025 42.6836 35.8476C40.5577 37.8853 37.7819 38.0775 34.4931 36.4114C33.5178 35.9116 33.1051 35.604 32.2297 34.707C31.3546 33.8228 31.1044 33.4768 30.8669 32.8488C30.4792 31.7593 30.5544 30.4266 31.0668 29.4525C31.7921 28.0686 33.4552 26.7101 35.3058 25.9796C37.194 25.2235 38.4819 25.0696 39.9949 25.4286ZM73.7572 35.2069C76.5579 36.2961 79.0838 40.9227 78.8461 44.498C78.6715 47.2023 77.0082 49.4961 74.4946 50.4959C73.6448 50.829 71.7438 50.9444 70.7187 50.7265C68.593 50.2778 66.6169 48.4838 65.8668 46.305C64.9038 43.4729 66.0917 39.2566 68.568 36.7063C70.2433 34.989 71.9314 34.5019 73.7572 35.2069ZM26.5904 37.5905C29.3286 39.0003 31.4545 43.7164 30.6919 46.7407C30.079 49.2013 28.1535 51.0211 25.7401 51.4056C22.764 51.8799 19.8254 49.8807 19.0377 46.8433C18.2249 43.7164 20.4006 38.9106 23.264 37.5263C24.4271 36.9625 25.4024 36.988 26.5904 37.5905ZM48.4231 42.9731C49.9985 45.6771 52.3495 48.471 54.7252 50.4445L55.9131 51.4312L48.1854 51.4698C43.9339 51.4826 40.4327 51.4698 40.3952 51.4312C40.3701 51.4056 40.5327 51.2134 40.7578 51.0211C43.1963 48.9834 45.647 45.8565 47.0852 42.9731C47.4102 42.3065 47.6978 41.7555 47.6978 41.7555C47.7103 41.7555 48.0354 42.3065 48.4231 42.9731Z" fill="white"/>
</svg>
