<svg width="66" height="61" viewBox="0 0 66 61" fill="none" xmlns="http://www.w3.org/2000/svg">
<path d="M46.5752 0.0436166C44.71 0.194923 43.4638 0.4471 41.9121 0.968266C39.2053 1.8761 36.8449 3.37236 34.7734 5.49067C34.1793 6.08746 33.4364 6.94488 33.1063 7.39036C32.3305 8.44954 31.4392 9.97941 31.0101 10.9881C30.8203 11.4336 30.6388 11.8203 30.614 11.8623C30.581 11.896 30.3499 11.6102 30.094 11.2319C28.46 8.78577 26.3472 6.89445 23.7806 5.58313C19.91 3.59931 15.3625 3.27148 11.2279 4.67528C4.32844 7.02892 -0.268429 13.7621 0.012169 21.1256C0.152468 24.7317 1.26661 27.9009 3.41237 30.7419C4.46049 32.1375 6.38341 33.9194 7.62961 34.6676C7.82769 34.7853 7.99274 34.9113 7.99274 34.9366C7.99274 34.9702 7.86895 35.0963 7.71216 35.2224C7.30773 35.5501 6.63923 36.6094 6.41643 37.2818L6.21835 37.8535V47.352V56.8508L6.40817 57.4644C6.77958 58.6748 7.7864 59.8434 8.94183 60.4315C10.1055 61.0114 8.36411 60.9614 28.7076 60.9951C41.2354 61.0114 47.2518 60.9864 47.6316 60.9277C48.7785 60.7511 49.6866 60.2886 50.4872 59.4901C51.4526 58.5319 51.8981 57.473 51.9642 55.9935C51.9809 55.4723 52.0305 55.0435 52.0715 55.0435C52.1292 55.0435 61.6285 59.482 63.2048 60.2468C64.1953 60.7261 65.0618 60.5326 65.5566 59.7086L65.8042 59.3052L65.8293 48.588C65.8372 41.1905 65.8207 37.7778 65.763 37.5508C65.5651 36.8111 64.7231 36.2226 64.0052 36.3236C63.8073 36.3572 61.2817 37.4919 57.9229 39.0723C54.7702 40.5601 52.1457 41.7958 52.088 41.8209C52.0219 41.8462 51.9888 41.3166 51.9642 39.812C51.9311 38.1477 51.8981 37.702 51.7908 37.3911C51.7086 37.1893 51.659 36.9792 51.6835 36.9203C51.7002 36.8699 51.865 36.7942 52.0384 36.7607C53.2354 36.5337 55.7275 35.4914 57.1469 34.6171C61.3808 32.0113 64.5085 27.5981 65.5486 22.748C66.1014 20.1842 66.151 17.5195 65.6724 15.107C64.5251 9.21445 60.7538 4.31382 55.4056 1.74161C52.8059 0.489128 49.2821 -0.183342 46.5752 0.0436166ZM48.795 4.06165C49.604 4.2802 50.1653 4.60804 50.7924 5.23848C51.4526 5.90256 51.8324 6.56659 52.0305 7.44081C52.5422 9.65998 51.0316 12.8963 49.018 13.9218C48.4566 14.2076 48.3414 14.2328 47.7389 14.2328C47.1856 14.2244 46.9876 14.1908 46.5752 13.9974C45.4939 13.4847 44.6109 12.518 43.9837 11.1562C43.1666 9.39099 43.1089 7.83589 43.7857 6.39005C44.0827 5.76804 45.098 4.72571 45.7085 4.42309C46.6578 3.94396 47.8377 3.80946 48.795 4.06165ZM17.7642 7.55011C19.3653 8.10489 20.4629 9.67679 20.4547 11.3916C20.4464 13.2661 19.1589 15.5189 17.6734 16.2671C17.1122 16.5445 16.9802 16.578 16.4438 16.578C15.9403 16.5696 15.7505 16.5275 15.3214 16.309C13.5387 15.4181 12.1605 12.4592 12.6144 10.4838C12.961 8.97068 14.2402 7.70142 15.7174 7.39036C16.2786 7.2727 17.1865 7.33993 17.7642 7.55011ZM38.6276 14.2244C41.4253 14.7708 43.7443 16.9647 43.5298 18.8812C43.3317 20.6885 41.2602 22.4537 38.7018 22.9833C36.6717 23.3952 34.7405 22.5379 33.783 20.7895C33.4118 20.1253 33.2466 19.436 33.2466 18.6038C33.2549 17.3513 33.6015 16.4519 34.4515 15.5357C35.5493 14.3505 36.977 13.905 38.6276 14.2244ZM58.6737 14.3085C59.425 14.4766 60.1759 14.8801 60.7453 15.4265C61.7027 16.3679 62.1237 17.3429 62.1317 18.6543C62.1317 19.9068 61.7523 20.924 60.9849 21.7392C59.4415 23.3785 57.3285 23.6222 54.9106 22.4285C53.887 21.9326 53.0454 21.2686 52.5583 20.5961C52.0305 19.8479 51.8736 19.4025 51.8736 18.6291C51.865 18.0743 51.9067 17.9145 52.1292 17.4523C52.5998 16.4856 53.483 15.6534 54.7039 15.0314C56.1401 14.3 57.4853 14.0563 58.6737 14.3085ZM8.63648 16.6453C10.2953 17.0656 11.8964 18.2172 12.4493 19.4109C13.2168 21.0752 12.2678 22.7816 9.93214 23.8995C8.14953 24.7571 6.50722 24.7401 5.18673 23.8407C3.51966 22.7059 2.98322 20.4951 3.92405 18.6122C4.39446 17.6792 5.58289 16.7714 6.63101 16.5528C7.10968 16.4519 8.06703 16.494 8.63648 16.6453ZM26.3967 16.679C26.7021 16.7462 27.1726 16.9394 27.4448 17.0993C29.7721 18.5198 30.127 21.6468 28.1712 23.513C26.7681 24.8495 24.936 24.9756 22.7654 23.8828C22.1217 23.5549 21.8493 23.3531 21.2716 22.7648C20.694 22.1848 20.5289 21.9579 20.3722 21.546C20.1163 20.8314 20.1659 19.9573 20.5041 19.3183C20.9828 18.4106 22.0804 17.5195 23.3019 17.0404C24.5481 16.5445 25.3981 16.4435 26.3967 16.679ZM48.6798 23.0927C50.5282 23.8071 52.1953 26.8417 52.0384 29.1869C51.9232 30.9606 50.8254 32.4652 49.1665 33.1209C48.6056 33.3395 47.3509 33.4151 46.6743 33.2722C45.2714 32.9779 43.9672 31.8012 43.4721 30.3721C42.8365 28.5145 43.6205 25.7489 45.2549 24.0761C46.3606 22.9498 47.4747 22.6303 48.6798 23.0927ZM17.5496 24.6561C19.3569 25.5809 20.76 28.6742 20.2566 30.6579C19.8521 32.2718 18.5813 33.4654 16.9884 33.7177C15.0242 34.0288 13.0848 32.7174 12.5649 30.7252C12.0284 28.6742 13.4644 25.522 15.3543 24.614C16.1219 24.2442 16.7656 24.261 17.5496 24.6561ZM31.9592 28.1866C32.999 29.9602 34.5507 31.7928 36.1186 33.0872L36.9026 33.7344L31.8024 33.7598C28.9964 33.7682 26.6856 33.7598 26.6608 33.7344C26.6443 33.7177 26.7516 33.5916 26.9002 33.4654C28.5095 32.1289 30.127 30.0779 31.0762 28.1866C31.2908 27.7494 31.4805 27.388 31.4805 27.388C31.4888 27.388 31.7034 27.7494 31.9592 28.1866Z" fill="#FF4350"/>
</svg>
