<svg width="15" height="16" viewBox="0 0 15 16" fill="none" xmlns="http://www.w3.org/2000/svg">
<path d="M6.5406 1.26355C6.82201 0.306272 8.17799 0.306272 8.4594 1.26355L9.42182 4.53736C9.54695 4.96301 9.93757 5.25532 10.3812 5.25532H13.6926C14.637 5.25532 15.0551 6.44375 14.3188 7.03504L11.4732 9.32007C11.1573 9.57378 11.0257 9.99307 11.1399 10.3818L12.1854 13.9382C12.4615 14.8774 11.3632 15.6129 10.5999 14.9999L8.12613 13.0134C7.76038 12.7197 7.23962 12.7197 6.87387 13.0134L4.40011 14.9999C3.6368 15.6129 2.53848 14.8774 2.81458 13.9382L3.86005 10.3818C3.97434 9.99307 3.84273 9.57378 3.52678 9.32007L0.68124 7.03504C-0.0550923 6.44375 0.363016 5.25532 1.30737 5.25532H4.61878C5.06243 5.25532 5.45305 4.96301 5.57818 4.53736L6.5406 1.26355Z" fill="white"/>
</svg>
