<svg width="1613" height="442" viewBox="0 0 1613 442" fill="none" xmlns="http://www.w3.org/2000/svg">
<path d="M1253.2 2.79991C1245.2 5.59991 1237.33 13.0666 1233.07 21.7332C1225.73 36.5332 1229.33 55.1999 1241.33 65.7332C1244.53 68.3999 1289.47 95.8666 1341.33 126.667L1435.47 182.667L731.067 183.333L26.6667 184L21.2001 186.933C13.6001 190.933 7.46672 197.467 3.73339 205.733C0.933385 211.733 0.400052 214.4 0.933386 222.4C1.73339 238.267 9.60005 249.733 24.1334 256.267C29.0667 258.533 63.2001 258.667 731.6 259.333L1433.87 260L1340.27 315.6C1288.8 346.267 1244.4 373.067 1241.73 375.333C1225.87 388.533 1225.07 415.6 1240.4 430.267C1248.67 438.267 1255.87 441.333 1266.67 441.2C1272 441.2 1278 440.267 1280.8 439.067C1283.47 437.867 1355.47 395.467 1440.8 344.8C1610.27 244.133 1605.87 246.933 1610.67 232C1614.8 218.8 1610.8 202.933 1601.07 193.733C1597.87 190.667 1535.87 153.467 1355.33 46.2666C1337.33 35.5999 1315.2 22.3999 1306 16.9332C1281.73 2.39991 1277.6 0.666579 1267.33 0.799912C1262.53 0.799912 1256.13 1.73325 1253.2 2.79991Z" fill="#8B949B"/>
</svg>
