<svg width="26" height="33" viewBox="0 0 26 33" fill="none" xmlns="http://www.w3.org/2000/svg">
<path d="M22.75 18.4923V13.2324C22.7477 10.8888 21.9306 8.6217 20.4435 6.83252C18.9564 5.04334 16.8952 3.84757 14.625 3.45697V1.65405C14.625 1.21537 14.4538 0.794656 14.149 0.484461C13.8443 0.174266 13.431 0 13 0C12.569 0 12.1557 0.174266 11.851 0.484461C11.5462 0.794656 11.375 1.21537 11.375 1.65405V3.45697C9.10478 3.84757 7.0436 5.04334 5.5565 6.83252C4.0694 8.6217 3.25233 10.8888 3.25 13.2324V18.4923C2.30173 18.8336 1.48037 19.465 0.898525 20.3001C0.316678 21.1351 0.00282671 22.133 0 23.1567V26.4648C0 26.9035 0.171205 27.3242 0.475952 27.6344C0.780698 27.9446 1.19402 28.1189 1.625 28.1189H6.7275C7.10171 29.5205 7.91863 30.7578 9.05222 31.6399C10.1858 32.5221 11.5731 33 13 33C14.4269 33 15.8142 32.5221 16.9478 31.6399C18.0814 30.7578 18.8983 29.5205 19.2725 28.1189H24.375C24.806 28.1189 25.2193 27.9446 25.524 27.6344C25.8288 27.3242 26 26.9035 26 26.4648V23.1567C25.9972 22.133 25.6833 21.1351 25.1015 20.3001C24.5196 19.465 23.6983 18.8336 22.75 18.4923ZM6.5 13.2324C6.5 11.4777 7.18482 9.79483 8.40381 8.55405C9.62279 7.31327 11.2761 6.61621 13 6.61621C14.7239 6.61621 16.3772 7.31327 17.5962 8.55405C18.8152 9.79483 19.5 11.4777 19.5 13.2324V18.1946H6.5V13.2324ZM13 29.7729C12.4328 29.7695 11.8764 29.615 11.3861 29.3248C10.8958 29.0346 10.4886 28.6189 10.205 28.1189H15.795C15.5114 28.6189 15.1042 29.0346 14.6139 29.3248C14.1236 29.615 13.5672 29.7695 13 29.7729ZM22.75 24.8108H3.25V23.1567C3.25 22.7181 3.42121 22.2973 3.72595 21.9871C4.0307 21.6769 4.44402 21.5027 4.875 21.5027H21.125C21.556 21.5027 21.9693 21.6769 22.274 21.9871C22.5788 22.2973 22.75 22.7181 22.75 23.1567V24.8108Z" fill="#1A1C20"/>
</svg>
